<svg width="1823" height="1677" viewBox="0 0 1823 1677" fill="none" xmlns="http://www.w3.org/2000/svg">
<rect x="812" y="1031" width="200" height="300" fill="#25FA6D"/>
<path d="M812 1331L720.201 1031.75L903.799 1031.75L812 1331Z" fill="#25FA6D"/>
<path d="M1012 1331L920.201 1031.75L1103.8 1031.75L1012 1331Z" fill="#25FA6D"/>
<rect x="891" y="335" width="50" height="696" fill="#25FA6D"/>
<ellipse cx="696.231" cy="787.532" rx="211" ry="90" transform="rotate(6.85253 696.231 787.532)" fill="#25FA6D"/>
<line x1="906.362" y1="818.959" x2="486.362" y2="764.959" stroke="#F5F5F5" stroke-width="10"/>
<line x1="614.04" y1="767.63" x2="606.04" y2="704.63" stroke="#F5F5F5" stroke-width="10"/>
<line x1="578.81" y1="835.272" x2="606.81" y2="792.272" stroke="#F5F5F5" stroke-width="10"/>
<line x1="630.528" y1="860.764" x2="660.528" y2="800.764" stroke="#F5F5F5" stroke-width="10"/>
<line x1="696.528" y1="870.764" x2="726.528" y2="810.764" stroke="#F5F5F5" stroke-width="10"/>
<line x1="766.491" y1="864.839" x2="789.491" y2="816.839" stroke="#F5F5F5" stroke-width="10"/>
<line x1="660.013" y1="770.361" x2="655.013" y2="701.361" stroke="#F5F5F5" stroke-width="10"/>
<line x1="731.013" y1="783.361" x2="726.013" y2="714.361" stroke="#F5F5F5" stroke-width="10"/>
<line x1="792.013" y1="794.361" x2="787.013" y2="725.361" stroke="#F5F5F5" stroke-width="10"/>
<line x1="792.013" y1="794.361" x2="787.013" y2="725.361" stroke="#F5F5F5" stroke-width="10"/>
<ellipse cx="1136.23" cy="724.532" rx="211" ry="90" transform="rotate(6.85253 1136.23 724.532)" fill="#25FA6D"/>
<line x1="1346.36" y1="755.959" x2="926.362" y2="701.959" stroke="#F5F5F5" stroke-width="10"/>
<line x1="1054.04" y1="704.63" x2="1046.04" y2="641.63" stroke="#F5F5F5" stroke-width="10"/>
<line x1="1018.81" y1="772.272" x2="1046.81" y2="729.272" stroke="#F5F5F5" stroke-width="10"/>
<line x1="1070.53" y1="797.764" x2="1100.53" y2="737.764" stroke="#F5F5F5" stroke-width="10"/>
<line x1="1136.53" y1="807.764" x2="1166.53" y2="747.764" stroke="#F5F5F5" stroke-width="10"/>
<line x1="1206.49" y1="801.839" x2="1229.49" y2="753.839" stroke="#F5F5F5" stroke-width="10"/>
<line x1="1100.01" y1="707.361" x2="1095.01" y2="638.361" stroke="#F5F5F5" stroke-width="10"/>
<line x1="1171.01" y1="720.361" x2="1166.01" y2="651.361" stroke="#F5F5F5" stroke-width="10"/>
<line x1="1232.01" y1="731.361" x2="1227.01" y2="662.361" stroke="#F5F5F5" stroke-width="10"/>
<line x1="1232.01" y1="731.361" x2="1227.01" y2="662.361" stroke="#F5F5F5" stroke-width="10"/>
<ellipse cx="696.231" cy="341.532" rx="211" ry="90" transform="rotate(6.85253 696.231 341.532)" fill="#25FA6D"/>
<line x1="906.362" y1="372.959" x2="486.362" y2="318.959" stroke="#F5F5F5" stroke-width="10"/>
<line x1="614.04" y1="321.63" x2="606.04" y2="258.63" stroke="#F5F5F5" stroke-width="10"/>
<line x1="578.81" y1="389.272" x2="606.81" y2="346.272" stroke="#F5F5F5" stroke-width="10"/>
<line x1="630.528" y1="414.764" x2="660.528" y2="354.764" stroke="#F5F5F5" stroke-width="10"/>
<line x1="696.528" y1="424.764" x2="726.528" y2="364.764" stroke="#F5F5F5" stroke-width="10"/>
<line x1="766.491" y1="418.839" x2="789.491" y2="370.839" stroke="#F5F5F5" stroke-width="10"/>
<line x1="660.013" y1="324.361" x2="655.013" y2="255.361" stroke="#F5F5F5" stroke-width="10"/>
<line x1="731.013" y1="337.361" x2="726.013" y2="268.361" stroke="#F5F5F5" stroke-width="10"/>
<line x1="792.013" y1="348.361" x2="787.013" y2="279.361" stroke="#F5F5F5" stroke-width="10"/>
<line x1="792.013" y1="348.361" x2="787.013" y2="279.361" stroke="#F5F5F5" stroke-width="10"/>
</svg>
