<svg width="3678" height="799" viewBox="0 0 3678 799" fill="none" xmlns="http://www.w3.org/2000/svg">
<g clip-path="url(#clip0_70_42)">
<line x1="400" y1="93" x2="400" y2="706" stroke="black" stroke-width="20"/>
<path d="M552 399.5C552 485.659 534.214 563.166 505.931 618.765C477.369 674.915 439.721 706 401 706C362.279 706 324.631 674.915 296.069 618.765C267.786 563.166 250 485.659 250 399.5C250 313.341 267.786 235.834 296.069 180.235C324.631 124.085 362.279 93 401 93C439.721 93 477.369 124.085 505.931 180.235C534.214 235.834 552 313.341 552 399.5Z" stroke="black" stroke-width="20"/>
<line x1="88.0472" y1="400" x2="713.047" y2="402.948" stroke="black" stroke-width="20"/>
<line x1="130.047" y1="239" x2="665.041" y2="241.524" stroke="black" stroke-width="20"/>
<line x1="125.047" y1="546" x2="665.041" y2="548.547" stroke="black" stroke-width="20"/>
<circle cx="400" cy="400" r="310" stroke="black" stroke-width="20"/>
<path d="M856.395 177.545V323H825.642V177.545H856.395ZM1003.36 177.545V323H976.796L913.515 231.452H912.45V323H881.697V177.545H908.685L971.469 269.023H972.748V177.545H1003.36ZM1023.23 202.901V177.545H1142.69V202.901H1098.16V323H1067.76V202.901H1023.23ZM1162.36 323V177.545H1260.37V202.901H1193.11V237.56H1255.33V262.915H1193.11V297.645H1260.66V323H1162.36ZM1284.82 323V177.545H1342.21C1353.19 177.545 1362.57 179.51 1370.33 183.44C1378.15 187.323 1384.09 192.839 1388.16 199.989C1392.28 207.091 1394.34 215.448 1394.34 225.06C1394.34 234.719 1392.26 243.028 1388.09 249.989C1383.92 256.902 1377.89 262.205 1369.98 265.898C1362.12 269.591 1352.6 271.438 1341.43 271.438H1303V246.722H1336.46C1342.33 246.722 1347.2 245.917 1351.09 244.307C1354.97 242.697 1357.86 240.282 1359.75 237.062C1361.69 233.843 1362.66 229.842 1362.66 225.06C1362.66 220.23 1361.69 216.158 1359.75 212.844C1357.86 209.529 1354.94 207.02 1351.01 205.315C1347.13 203.563 1342.23 202.688 1336.31 202.688H1315.57V323H1284.82ZM1363.37 256.807L1399.52 323H1365.57L1330.21 256.807H1363.37ZM1537.73 177.545V323H1511.17L1447.89 231.452H1446.82V323H1416.07V177.545H1443.06L1505.84 269.023H1507.12V177.545H1537.73ZM1588.21 323H1555.26L1605.47 177.545H1645.1L1695.24 323H1662.29L1625.86 210.784H1624.72L1588.21 323ZM1586.15 265.827H1663.99V289.832H1586.15V265.827ZM1689.44 202.901V177.545H1808.9V202.901H1764.37V323H1733.97V202.901H1689.44ZM1859.32 177.545V323H1828.57V177.545H1859.32ZM2018.29 250.273C2018.29 266.134 2015.28 279.629 2009.27 290.756C2003.31 301.883 1995.16 310.382 1984.84 316.253C1974.56 322.077 1963.01 324.989 1950.18 324.989C1937.25 324.989 1925.65 322.053 1915.38 316.182C1905.1 310.311 1896.98 301.812 1891.02 290.685C1885.05 279.558 1882.07 266.087 1882.07 250.273C1882.07 234.411 1885.05 220.917 1891.02 209.79C1896.98 198.663 1905.1 190.187 1915.38 184.364C1925.65 178.492 1937.25 175.557 1950.18 175.557C1963.01 175.557 1974.56 178.492 1984.84 184.364C1995.16 190.187 2003.31 198.663 2009.27 209.79C2015.28 220.917 2018.29 234.411 2018.29 250.273ZM1987.11 250.273C1987.11 239.998 1985.57 231.333 1982.5 224.278C1979.47 217.223 1975.18 211.873 1969.64 208.227C1964.1 204.581 1957.61 202.759 1950.18 202.759C1942.75 202.759 1936.26 204.581 1930.72 208.227C1925.18 211.873 1920.87 217.223 1917.79 224.278C1914.76 231.333 1913.25 239.998 1913.25 250.273C1913.25 260.547 1914.76 269.212 1917.79 276.267C1920.87 283.322 1925.18 288.672 1930.72 292.318C1936.26 295.964 1942.75 297.787 1950.18 297.787C1957.61 297.787 1964.1 295.964 1969.64 292.318C1975.18 288.672 1979.47 283.322 1982.5 276.267C1985.57 269.212 1987.11 260.547 1987.11 250.273ZM2162.73 177.545V323H2136.17L2072.89 231.452H2071.82V323H2041.07V177.545H2068.06L2130.84 269.023H2132.12V177.545H2162.73ZM2213.21 323H2180.26L2230.47 177.545H2270.1L2320.24 323H2287.29L2250.86 210.784H2249.72L2213.21 323ZM2211.15 265.827H2288.99V289.832H2211.15V265.827ZM2337.75 323V177.545H2368.5V297.645H2430.86V323H2337.75ZM2622.71 219.378C2622.14 213.649 2619.71 209.198 2615.4 206.026C2611.09 202.853 2605.24 201.267 2597.85 201.267C2592.84 201.267 2588.6 201.977 2585.14 203.398C2581.68 204.771 2579.03 206.688 2577.19 209.151C2575.39 211.613 2574.49 214.406 2574.49 217.531C2574.39 220.135 2574.94 222.408 2576.12 224.349C2577.35 226.291 2579.03 227.972 2581.16 229.392C2583.29 230.765 2585.76 231.973 2588.55 233.014C2591.34 234.009 2594.33 234.861 2597.5 235.571L2610.57 238.696C2616.91 240.116 2622.74 242.01 2628.04 244.378C2633.34 246.745 2637.93 249.657 2641.82 253.114C2645.7 256.57 2648.71 260.642 2650.84 265.33C2653.02 270.017 2654.13 275.391 2654.18 281.452C2654.13 290.353 2651.86 298.071 2647.36 304.605C2642.91 311.092 2636.47 316.134 2628.04 319.733C2619.66 323.284 2609.55 325.06 2597.71 325.06C2585.97 325.06 2575.74 323.26 2567.03 319.662C2558.37 316.063 2551.59 310.737 2546.72 303.682C2541.89 296.58 2539.36 287.796 2539.12 277.332H2568.88C2569.21 282.209 2570.61 286.281 2573.07 289.548C2575.58 292.768 2578.92 295.206 2583.08 296.864C2587.3 298.473 2592.05 299.278 2597.36 299.278C2602.57 299.278 2607.09 298.521 2610.92 297.006C2614.81 295.491 2617.81 293.384 2619.94 290.685C2622.07 287.986 2623.14 284.884 2623.14 281.381C2623.14 278.114 2622.17 275.367 2620.23 273.142C2618.33 270.917 2615.54 269.023 2611.85 267.46C2608.2 265.898 2603.73 264.477 2598.42 263.199L2582.58 259.222C2570.32 256.239 2560.64 251.575 2553.54 245.23C2546.43 238.885 2542.91 230.339 2542.95 219.591C2542.91 210.784 2545.25 203.09 2549.99 196.509C2554.77 189.927 2561.33 184.79 2569.66 181.097C2577.99 177.403 2587.46 175.557 2598.07 175.557C2608.86 175.557 2618.29 177.403 2626.33 181.097C2634.43 184.79 2640.73 189.927 2645.23 196.509C2649.72 203.09 2652.04 210.713 2652.19 219.378H2622.71ZM2808.53 250.273C2808.53 266.134 2805.52 279.629 2799.51 290.756C2793.54 301.883 2785.4 310.382 2775.07 316.253C2764.8 322.077 2753.25 324.989 2740.41 324.989C2727.49 324.989 2715.89 322.053 2705.61 316.182C2695.34 310.311 2687.22 301.812 2681.25 290.685C2675.29 279.558 2672.3 266.087 2672.3 250.273C2672.3 234.411 2675.29 220.917 2681.25 209.79C2687.22 198.663 2695.34 190.187 2705.61 184.364C2715.89 178.492 2727.49 175.557 2740.41 175.557C2753.25 175.557 2764.8 178.492 2775.07 184.364C2785.4 190.187 2793.54 198.663 2799.51 209.79C2805.52 220.917 2808.53 234.411 2808.53 250.273ZM2777.35 250.273C2777.35 239.998 2775.81 231.333 2772.73 224.278C2769.7 217.223 2765.41 211.873 2759.88 208.227C2754.34 204.581 2747.85 202.759 2740.41 202.759C2732.98 202.759 2726.49 204.581 2720.95 208.227C2715.41 211.873 2711.11 217.223 2708.03 224.278C2705 231.333 2703.48 239.998 2703.48 250.273C2703.48 260.547 2705 269.212 2708.03 276.267C2711.11 283.322 2715.41 288.672 2720.95 292.318C2726.49 295.964 2732.98 297.787 2740.41 297.787C2747.85 297.787 2754.34 295.964 2759.88 292.318C2765.41 288.672 2769.7 283.322 2772.73 276.267C2775.81 269.212 2777.35 260.547 2777.35 250.273ZM2813.99 177.545H2848.44L2881.61 240.188H2883.03L2916.2 177.545H2950.64L2897.59 271.58V323H2867.05V271.58L2813.99 177.545ZM2967.44 323V177.545H3025.68C3036.38 177.545 3045.3 179.132 3052.45 182.304C3059.6 185.476 3064.98 189.88 3068.58 195.514C3072.17 201.101 3073.97 207.541 3073.97 214.832C3073.97 220.514 3072.84 225.509 3070.56 229.818C3068.29 234.08 3065.17 237.583 3061.19 240.33C3057.26 243.028 3052.76 244.946 3047.69 246.082V247.503C3053.23 247.74 3058.42 249.302 3063.25 252.19C3068.13 255.079 3072.08 259.127 3075.11 264.335C3078.14 269.496 3079.65 275.652 3079.65 282.801C3079.65 290.519 3077.74 297.408 3073.9 303.469C3070.11 309.482 3064.5 314.241 3057.07 317.744C3049.64 321.248 3040.47 323 3029.58 323H2967.44ZM2998.19 297.858H3023.26C3031.83 297.858 3038.08 296.224 3042.01 292.957C3045.94 289.643 3047.91 285.24 3047.91 279.747C3047.91 275.723 3046.94 272.171 3045 269.094C3043.05 266.016 3040.28 263.601 3036.69 261.849C3033.13 260.098 3028.9 259.222 3023.97 259.222H2998.19V297.858ZM2998.19 238.412H3020.99C3025.2 238.412 3028.94 237.678 3032.21 236.21C3035.53 234.695 3038.13 232.564 3040.02 229.818C3041.97 227.072 3042.94 223.781 3042.94 219.946C3042.94 214.69 3041.07 210.453 3037.33 207.233C3033.63 204.013 3028.38 202.403 3021.56 202.403H2998.19V238.412ZM3099.67 323V177.545H3197.68V202.901H3130.42V237.56H3192.63V262.915H3130.42V297.645H3197.96V323H3099.67ZM3247.2 323H3214.24L3264.46 177.545H3304.09L3354.23 323H3321.27L3284.84 210.784H3283.7L3247.2 323ZM3245.14 265.827H3322.98V289.832H3245.14V265.827ZM3493.4 177.545V323H3466.84L3403.55 231.452H3402.49V323H3371.74V177.545H3398.72L3461.51 269.023H3462.79V177.545H3493.4ZM953.98 478.469H922.872C922.304 474.444 921.144 470.869 919.392 467.744C917.64 464.572 915.391 461.873 912.645 459.648C909.899 457.422 906.726 455.718 903.128 454.534C899.577 453.35 895.718 452.759 891.551 452.759C884.023 452.759 877.465 454.629 871.878 458.369C866.291 462.062 861.958 467.46 858.881 474.562C855.803 481.617 854.264 490.187 854.264 500.273C854.264 510.642 855.803 519.354 858.881 526.409C862.006 533.464 866.362 538.791 871.949 542.389C877.536 545.988 883.999 547.787 891.338 547.787C895.457 547.787 899.269 547.242 902.773 546.153C906.324 545.064 909.473 543.478 912.219 541.395C914.965 539.264 917.238 536.684 919.037 533.653C920.884 530.623 922.162 527.167 922.872 523.284L953.98 523.426C953.175 530.102 951.163 536.542 947.943 542.744C944.771 548.9 940.486 554.416 935.088 559.293C929.738 564.122 923.346 567.957 915.912 570.798C908.526 573.592 900.169 574.989 890.841 574.989C877.867 574.989 866.267 572.053 856.04 566.182C845.86 560.311 837.811 551.812 831.892 540.685C826.021 529.558 823.085 516.087 823.085 500.273C823.085 484.411 826.068 470.917 832.034 459.79C838 448.663 846.097 440.187 856.324 434.364C866.551 428.492 878.057 425.557 890.841 425.557C899.269 425.557 907.081 426.741 914.278 429.108C921.523 431.475 927.938 434.932 933.526 439.477C939.113 443.975 943.658 449.491 947.162 456.026C950.713 462.56 952.986 470.041 953.98 478.469ZM1109.7 500.273C1109.7 516.134 1106.69 529.629 1100.68 540.756C1094.71 551.883 1086.57 560.382 1076.25 566.253C1065.97 572.077 1054.42 574.989 1041.59 574.989C1028.66 574.989 1017.06 572.053 1006.79 566.182C996.511 560.311 988.391 551.812 982.425 540.685C976.459 529.558 973.476 516.087 973.476 500.273C973.476 484.411 976.459 470.917 982.425 459.79C988.391 448.663 996.511 440.187 1006.79 434.364C1017.06 428.492 1028.66 425.557 1041.59 425.557C1054.42 425.557 1065.97 428.492 1076.25 434.364C1086.57 440.187 1094.71 448.663 1100.68 459.79C1106.69 470.917 1109.7 484.411 1109.7 500.273ZM1078.52 500.273C1078.52 489.998 1076.98 481.333 1073.9 474.278C1070.87 467.223 1066.59 461.873 1061.05 458.227C1055.51 454.581 1049.02 452.759 1041.59 452.759C1034.15 452.759 1027.67 454.581 1022.13 458.227C1016.59 461.873 1012.28 467.223 1009.2 474.278C1006.17 481.333 1004.65 489.998 1004.65 500.273C1004.65 510.547 1006.17 519.212 1009.2 526.267C1012.28 533.322 1016.59 538.672 1022.13 542.318C1027.67 545.964 1034.15 547.787 1041.59 547.787C1049.02 547.787 1055.51 545.964 1061.05 542.318C1066.59 538.672 1070.87 533.322 1073.9 526.267C1076.98 519.212 1078.52 510.547 1078.52 500.273ZM1254.14 427.545V573H1227.58L1164.3 481.452H1163.23V573H1132.48V427.545H1159.47L1222.25 519.023H1223.53V427.545H1254.14ZM1358.45 469.378C1357.89 463.649 1355.45 459.198 1351.14 456.026C1346.83 452.853 1340.98 451.267 1333.6 451.267C1328.58 451.267 1324.34 451.977 1320.88 453.398C1317.43 454.771 1314.78 456.688 1312.93 459.151C1311.13 461.613 1310.23 464.406 1310.23 467.531C1310.14 470.135 1310.68 472.408 1311.86 474.349C1313.09 476.291 1314.78 477.972 1316.91 479.392C1319.04 480.765 1321.5 481.973 1324.29 483.014C1327.09 484.009 1330.07 484.861 1333.24 485.571L1346.31 488.696C1352.65 490.116 1358.48 492.01 1363.78 494.378C1369.08 496.745 1373.68 499.657 1377.56 503.114C1381.44 506.57 1384.45 510.642 1386.58 515.33C1388.76 520.017 1389.87 525.391 1389.92 531.452C1389.87 540.353 1387.6 548.071 1383.1 554.605C1378.65 561.092 1372.21 566.134 1363.78 569.733C1355.4 573.284 1345.29 575.06 1333.45 575.06C1321.71 575.06 1311.48 573.26 1302.77 569.662C1294.11 566.063 1287.34 560.737 1282.46 553.682C1277.63 546.58 1275.1 537.796 1274.86 527.332H1304.62C1304.95 532.209 1306.35 536.281 1308.81 539.548C1311.32 542.768 1314.66 545.206 1318.82 546.864C1323.04 548.473 1327.8 549.278 1333.1 549.278C1338.31 549.278 1342.83 548.521 1346.66 547.006C1350.55 545.491 1353.55 543.384 1355.68 540.685C1357.82 537.986 1358.88 534.884 1358.88 531.381C1358.88 528.114 1357.91 525.367 1355.97 523.142C1354.07 520.917 1351.28 519.023 1347.59 517.46C1343.94 515.898 1339.47 514.477 1334.16 513.199L1318.33 509.222C1306.06 506.239 1296.38 501.575 1289.28 495.23C1282.18 488.885 1278.65 480.339 1278.7 469.591C1278.65 460.784 1280.99 453.09 1285.73 446.509C1290.51 439.927 1297.07 434.79 1305.4 431.097C1313.73 427.403 1323.2 425.557 1333.81 425.557C1344.61 425.557 1354.03 427.403 1362.08 431.097C1370.17 434.79 1376.47 439.927 1380.97 446.509C1385.47 453.09 1387.79 460.713 1387.93 469.378H1358.45ZM1500.45 427.545H1531.2V522.006C1531.2 532.612 1528.67 541.892 1523.6 549.847C1518.58 557.801 1511.55 564.004 1502.51 568.455C1493.46 572.858 1482.93 575.06 1470.9 575.06C1458.83 575.06 1448.27 572.858 1439.23 568.455C1430.18 564.004 1423.15 557.801 1418.13 549.847C1413.11 541.892 1410.6 532.612 1410.6 522.006V427.545H1441.36V519.378C1441.36 524.918 1442.56 529.842 1444.98 534.151C1447.44 538.459 1450.9 541.845 1455.35 544.307C1459.8 546.769 1464.98 548 1470.9 548C1476.87 548 1482.05 546.769 1486.46 544.307C1490.91 541.845 1494.34 538.459 1496.75 534.151C1499.22 529.842 1500.45 524.918 1500.45 519.378V427.545ZM1556.5 573V427.545H1587.25V547.645H1649.61V573H1556.5ZM1646.27 452.901V427.545H1765.73V452.901H1721.2V573H1690.81V452.901H1646.27ZM1792.71 573H1759.75L1809.96 427.545H1849.59L1899.74 573H1866.78L1830.35 460.784H1829.21L1792.71 573ZM1790.65 515.827H1868.49V539.832H1790.65V515.827ZM2038.91 427.545V573H2012.34L1949.06 481.452H1948V573H1917.24V427.545H1944.23L2007.02 519.023H2008.29V427.545H2038.91ZM2143.22 469.378C2142.65 463.649 2140.21 459.198 2135.9 456.026C2131.6 452.853 2125.75 451.267 2118.36 451.267C2113.34 451.267 2109.11 451.977 2105.65 453.398C2102.19 454.771 2099.54 456.688 2097.69 459.151C2095.9 461.613 2095 464.406 2095 467.531C2094.9 470.135 2095.45 472.408 2096.63 474.349C2097.86 476.291 2099.54 477.972 2101.67 479.392C2103.8 480.765 2106.26 481.973 2109.06 483.014C2111.85 484.009 2114.83 484.861 2118.01 485.571L2131.08 488.696C2137.42 490.116 2143.24 492.01 2148.55 494.378C2153.85 496.745 2158.44 499.657 2162.33 503.114C2166.21 506.57 2169.21 510.642 2171.35 515.33C2173.52 520.017 2174.64 525.391 2174.68 531.452C2174.64 540.353 2172.36 548.071 2167.87 554.605C2163.41 561.092 2156.97 566.134 2148.55 569.733C2140.17 573.284 2130.06 575.06 2118.22 575.06C2106.48 575.06 2096.25 573.26 2087.54 569.662C2078.87 566.063 2072.1 560.737 2067.23 553.682C2062.4 546.58 2059.86 537.796 2059.63 527.332H2089.38C2089.72 532.209 2091.11 536.281 2093.58 539.548C2096.08 542.768 2099.42 545.206 2103.59 546.864C2107.8 548.473 2112.56 549.278 2117.87 549.278C2123.07 549.278 2127.6 548.521 2131.43 547.006C2135.31 545.491 2138.32 543.384 2140.45 540.685C2142.58 537.986 2143.65 534.884 2143.65 531.381C2143.65 528.114 2142.68 525.367 2140.73 523.142C2138.84 520.917 2136.05 519.023 2132.35 517.46C2128.71 515.898 2124.23 514.477 2118.93 513.199L2103.09 509.222C2090.83 506.239 2081.15 501.575 2074.04 495.23C2066.94 488.885 2063.41 480.339 2063.46 469.591C2063.41 460.784 2065.76 453.09 2070.49 446.509C2075.28 439.927 2081.83 434.79 2090.17 431.097C2098.5 427.403 2107.97 425.557 2118.58 425.557C2129.37 425.557 2138.79 427.403 2146.84 431.097C2154.94 434.79 2161.24 439.927 2165.73 446.509C2170.23 453.09 2172.55 460.713 2172.69 469.378H2143.22ZM2227.68 553.114L2226.9 560.926C2226.29 567.176 2225.1 573.402 2223.35 579.605C2221.65 585.855 2219.85 591.513 2217.95 596.58C2216.11 601.646 2214.62 605.623 2213.48 608.511H2193.88C2194.59 605.718 2195.56 601.812 2196.79 596.793C2198.02 591.821 2199.18 586.234 2200.27 580.031C2201.36 573.829 2202.04 567.508 2202.33 561.068L2202.68 553.114H2227.68ZM2326.12 427.545V573H2295.37V427.545H2326.12ZM2473.09 427.545V573H2446.52L2383.24 481.452H2382.18V573H2351.42V427.545H2378.41L2441.2 519.023H2442.47V427.545H2473.09ZM2626.83 478.469H2595.72C2595.16 474.444 2594 470.869 2592.24 467.744C2590.49 464.572 2588.24 461.873 2585.5 459.648C2582.75 457.422 2579.58 455.718 2575.98 454.534C2572.43 453.35 2568.57 452.759 2564.4 452.759C2556.87 452.759 2550.32 454.629 2544.73 458.369C2539.14 462.062 2534.81 467.46 2531.73 474.562C2528.65 481.617 2527.12 490.187 2527.12 500.273C2527.12 510.642 2528.65 519.354 2531.73 526.409C2534.86 533.464 2539.21 538.791 2544.8 542.389C2550.39 545.988 2556.85 547.787 2564.19 547.787C2568.31 547.787 2572.12 547.242 2575.62 546.153C2579.18 545.064 2582.32 543.478 2585.07 541.395C2587.82 539.264 2590.09 536.684 2591.89 533.653C2593.74 530.623 2595.01 527.167 2595.72 523.284L2626.83 523.426C2626.03 530.102 2624.01 536.542 2620.79 542.744C2617.62 548.9 2613.34 554.416 2607.94 559.293C2602.59 564.122 2596.2 567.957 2588.76 570.798C2581.38 573.592 2573.02 574.989 2563.69 574.989C2550.72 574.989 2539.12 572.053 2528.89 566.182C2518.71 560.311 2510.66 551.812 2504.74 540.685C2498.87 529.558 2495.94 516.087 2495.94 500.273C2495.94 484.411 2498.92 470.917 2504.89 459.79C2510.85 448.663 2518.95 440.187 2529.18 434.364C2539.4 428.492 2550.91 425.557 2563.69 425.557C2572.12 425.557 2579.93 426.741 2587.13 429.108C2594.37 431.475 2600.79 434.932 2606.38 439.477C2611.96 443.975 2616.51 449.491 2620.01 456.026C2623.56 462.56 2625.84 470.041 2626.83 478.469Z" fill="black"/>
</g>
<defs>
<clipPath id="clip0_70_42">
<rect width="3678" height="799" fill="white"/>
</clipPath>
</defs>
</svg>
