<svg width="801" height="799" viewBox="0 0 801 799" fill="none" xmlns="http://www.w3.org/2000/svg">
<line x1="400" y1="93" x2="400" y2="706" stroke="black" stroke-width="20"/>
<path d="M552 399.5C552 485.659 534.214 563.166 505.931 618.765C477.369 674.915 439.721 706 401 706C362.279 706 324.631 674.915 296.069 618.765C267.786 563.166 250 485.659 250 399.5C250 313.341 267.786 235.834 296.069 180.235C324.631 124.085 362.279 93 401 93C439.721 93 477.369 124.085 505.931 180.235C534.214 235.834 552 313.341 552 399.5Z" stroke="black" stroke-width="20"/>
<line x1="88.0472" y1="400" x2="713.047" y2="402.948" stroke="black" stroke-width="20"/>
<line x1="130.047" y1="239" x2="665.041" y2="241.524" stroke="black" stroke-width="20"/>
<line x1="125.047" y1="546" x2="665.041" y2="548.547" stroke="black" stroke-width="20"/>
<circle cx="400" cy="400" r="310" stroke="black" stroke-width="20"/>
</svg>
